# ProBuilder 5.0.7
# https://unity3d.com/unity/features/worldbuilding/probuilder
# 6/9/2023 1:56:11 PM

mtllib ./Cabinet.mtl
o Cabinet

g Cube (124)
v 0 6.661338E-17 3
v -0.5 6.661338E-17 3
v 0 2 3
v -0.5 2 3
v -0.5 0 0
v -0.5 2 0
v 0 0 0
v 0 2 0
v -0.5 6.106227E-17 2.75
v -1.5 6.106227E-17 2.75
v -0.5 0.25 2.75
v -1.5 0.25 2.75
v -1.5 5.551115E-18 0.25
v -1.5 0.25 0.25
v -0.5 5.551115E-18 0.25
v -0.5 0.25 0.25
v -0.5 2 0.25
v -1.5 2 0.25
v -1.5 0 0
v -1.5 2 -4.440892E-17
v -1.5 6.661338E-17 3
v -1.5 2 3
v -1.5 2 2.75
v -0.5 2 2.75
v -1.5 1.75 0.25
v -1.5 1.75 2.75
v -0.5 1.75 0.25
v -0.5 1.75 2.75

vt 0 6.661338E-17
vt -0.5 6.661338E-17
vt 0 2
vt -0.5 2
vt 3 6.661338E-17
vt 3 2
vt 0.5 0
vt 0.5 2
vt -3 6.661338E-17
vt -3 2
vt 0 3
vt 0.5 3
vt -0.5 3
vt 0.25 6.106227E-17
vt -0.75 6.106227E-17
vt 0.25 0.25
vt -0.75 0.25
vt 2.5 6.106227E-17
vt 2.5 0.25
vt 0 0.25
vt 0.75 5.551115E-18
vt -0.25 5.551115E-18
vt 0.75 0.25
vt -0.25 0.25
vt -2.5 -1.490116E-08
vt -2.5 0.2500005
vt -0.25 2.5
vt 0.75 2.5
vt 0.25 2.5
vt -0.75 2.5
vt -1 5.551115E-18
vt -1 2
vt 0.25 2
vt 1 0
vt 1 2
vt -0.25 2
vt 1 0.25
vt -1 0.25
vt -0.4999999 2
vt -0.5 -0.25
vt 0.5 -0.25
vt 0 2.5
vt -1 2.5
vt 1 2.5
vt -0.25 -1
vt 0 -1
vt 0.25 -1

vn 0 0 1
vn -1 0 0
vn 0 0 -1
vn 1 0 0
vn 0 1 0
vn 0 -1 2.220446E-17

usemtl 360_F_507608227_9CXULB8KDpxE2o9g6uwuLhOJibOZOkzt
f 3/3/1 4/4/1 2/2/1 1/1/1
f 4/6/2 6/3/2 5/1/2 2/5/2
f 6/8/3 8/3/3 7/1/3 5/7/3
f 8/3/4 3/10/4 1/9/4 7/1/4
f 8/1/5 6/7/5 4/12/5 3/11/5
f 1/11/6 2/13/6 5/2/6 7/1/6
f 11/16/1 12/17/1 10/15/1 9/14/1
f 12/19/2 14/20/2 13/1/2 10/18/2
f 14/23/3 16/24/3 15/22/3 13/21/3
f 16/20/4 11/26/4 9/25/4 15/1/4
f 16/22/5 14/21/5 12/28/5 11/27/5
f 9/29/6 10/30/6 13/15/6 15/14/6
f 17/3/1 18/32/1 13/31/1 15/1/1
f 18/33/2 20/3/2 19/1/2 13/14/2
f 20/35/3 6/3/3 5/1/3 19/34/3
f 6/3/4 17/36/4 15/22/4 5/1/4
f 6/1/5 20/34/5 18/37/5 17/20/5
f 15/20/6 13/38/6 19/31/6 5/1/6
f 4/8/1 22/39/1 21/2/1 2/7/1
f 22/3/2 23/36/2 10/22/2 21/1/2
f 23/8/3 24/4/3 9/2/3 10/7/3
f 24/33/4 4/3/4 2/1/4 9/14/4
f 24/40/5 23/41/5 22/7/5 4/2/5
f 2/7/6 21/2/6 10/40/6 9/41/6
f 26/29/2 23/42/2 18/1/2 25/14/2
f 23/42/5 24/43/5 17/31/5 18/1/5
f 24/42/4 28/27/4 27/22/4 17/1/4
f 28/44/6 26/42/6 25/1/6 27/34/6
f 28/45/1 24/46/1 23/1/1 26/22/1
f 25/14/3 18/1/3 17/46/3 27/47/3

